#usda 1.0
(
    customLayerData = {
        string creator = "MuJoCo USD Converter v0.1.0a2"
    }
    defaultPrim = "aliengo_description"
    kilogramsPerUnit = 1
    metersPerUnit = 1
    upAxis = "Z"
)

def Xform "aliengo_description" (
    prepend apiSchemas = ["GeomModelAPI"]
    assetInfo = {
        string name = "aliengo_description"
    }
    kind = "component"
    prepend payload = @./Payload/Contents.usda@
)
{
    float3[] extentsHint = [(-0.311, -0.1527, -0.12649992), (0.4072, 0.1527, 0.65299994), (3.4028235e38, 3.4028235e38, 3.4028235e38), (-3.4028235e38, -3.4028235e38, -3.4028235e38), (3.4028235e38, 3.4028235e38, 3.4028235e38), (-3.4028235e38, -3.4028235e38, -3.4028235e38), (-0.2859, -0.2009, -0.1265), (0.4072, 0.2009, 0.648)]
}

def PhysicsScene "PhysicsScene" (
    prepend payload = @./Payload/Contents.usda@</PhysicsScene>
)
{
}

